<?xml version="1.0"?>
<svg width="745" height="745" xmlns="http://www.w3.org/2000/svg" xmlns:svg="http://www.w3.org/2000/svg" style="vector-effect: non-scaling-stroke;">
 <style type="text/css">.st0{fill:#FFD300;}
	.st1{fill:#FFFFFF;}
	.st2{stroke:#000000;stroke-miterlimit:10;}</style>

 <g class="layer" display="inline">
  <title>Layer 2</title>
  <ellipse cx="372.557616" cy="372.532425" fill="#ffd232" id="svg_14" rx="370.129867" ry="370.129867" stroke-dasharray="null" stroke-linecap="null" stroke-linejoin="null" stroke-width="null"/>
 </g>
 <g class="layer" display="inline">
  <title>Layer 1</title>
  <path d="m488.2,171.5l-200.1,0c-56.7,0 -103.3,45.7 -104.7,102.2c-15.4,-18.5 -36.7,-33.1 -57.3,-46.4c-0.2,-0.1 -0.4,-0.2 -0.6,-0.2c-0.3,0 -0.5,0 -0.8,0.1c-0.5,0.2 -0.8,0.5 -0.9,1c-5.7,18.5 -13.3,36.6 -22.8,53.5c-0.2,0.4 -0.3,1 0,1.4c0.2,0.4 0.7,0.8 1.2,0.8c26.3,2.8 52.2,8.9 77,18.4c-24.8,9.4 -50.7,15.6 -77,18.4c-0.5,0 -1,0.3 -1.2,0.8c-0.2,0.4 -0.2,1 0,1.4c9.4,16.9 17.1,35 22.8,53.5c0.1,0.5 0.5,0.8 0.9,1c0.3,0.1 0.5,0.1 0.8,0.1c0.2,0 0.4,-0.1 0.6,-0.2c20.5,-13.2 41.8,-27.8 57.2,-46.3l0,145.6c0,57.6 47.1,104.8 104.8,104.8l200.1,0c57.6,0 104.8,-47.1 104.8,-104.8l0,-200.4c-0.1,-57.6 -47.2,-104.7 -104.8,-104.7" fill="black" id="svg_4"/>
  <path class="st0" d="m562.3,381c0,37.1 -30.4,67.5 -67.5,67.5l-216,0c-37.1,0 -67.5,-30.4 -67.5,-67.5l0,-63.4c0,-37.1 30.4,-67.5 67.5,-67.5l216,0c37.1,0 67.5,30.4 67.5,67.5l0,63.4z" fill="black" id="svg_5"/>
  <path class="st2" d="m350.6,349.6c0,15.4 -12.5,27.9 -27.9,27.9c-15.4,0 -27.9,-12.5 -27.9,-27.9c0,-15.4 12.5,-27.9 27.9,-27.9c15.4,0 27.9,12.5 27.9,27.9" id="svg_6"/>
  <path class="st2" d="m481.4,349.6c0,15.4 -12.5,27.9 -27.9,27.9c-15.4,0 -27.9,-12.5 -27.9,-27.9c0,-15.4 12.5,-27.9 27.9,-27.9c15.4,0 27.9,12.5 27.9,27.9" id="svg_7"/>
  <path class="st2" d="m483.6,289c5,-0.5 9.4,2.9 10,8c0.5,5 -3.1,9.5 -8.1,10l-62,6.3c-5.1,0.5 -9.3,-3.1 -9.8,-8.2c-0.5,-4.9 3,-9.3 8,-9.8l61.9,-6.3z" id="svg_8"/>
  <path class="st2" d="m354.8,295.3c5,0.5 8.5,4.9 8,9.8c-0.5,5 -4.8,8.7 -9.8,8.2l-62.1,-6.3c-5.1,-0.5 -8.7,-4.9 -8.1,-10c0.5,-5 4.9,-8.5 10,-8l62,6.3z" id="svg_9"/>
  <path d="m278.3,449.6c0,0 40.6,3.9 76.9,-31.1s68.7,0 68.7,0s26.7,30.8 80.6,31.5l-226.2,-0.4z" id="svg_10"/>
 </g>
</svg>