<svg id="Layer_1" data-name="Layer 1" xmlns="http://www.w3.org/2000/svg" viewBox="0 0 438 438"><defs><style>.cls-1{fill:#fff;}</style></defs><title>gear</title><path class="cls-1" d="M438,254V184H364.89a148.87,148.87,0,0,0-18-43.4l51.71-51.71-49.5-49.5L297.4,91.1a148.87,148.87,0,0,0-43.4-18V0H184V73.11a148.87,148.87,0,0,0-43.4,18L88.89,39.39l-49.5,49.5L91.1,140.6a148.87,148.87,0,0,0-18,43.4H0v70H73.11a148.87,148.87,0,0,0,18,43.4L39.39,349.11l49.5,49.5L140.6,346.9a148.87,148.87,0,0,0,43.4,18V438h70V364.89a148.87,148.87,0,0,0,43.4-18l51.71,51.71,49.5-49.5L346.9,297.4a148.87,148.87,0,0,0,18-43.4ZM281,219a61.91,61.91,0,1,1-1.06-11.44A61.63,61.63,0,0,1,281,219Z"/></svg>