<svg id="Layer_1" data-name="Layer 1" xmlns="http://www.w3.org/2000/svg" viewBox="0 0 1024 1024"><defs><style>.cls-1{fill:none;}.cls-2{fill:#eb5055;}.cls-3{fill:#208efc;}</style></defs><title>smashcast-icon</title><rect class="cls-1" width="1024" height="1024"/><g id="icon"><path class="cls-2" d="M294.46,470.12a45.41,45.41,0,0,1-17.52-3.52L156.46,416.43a45.62,45.62,0,1,1,35.08-84.23L312,382.37a45.63,45.63,0,0,1-17.56,87.75Z" transform="translate(0)"/><path class="cls-3" d="M642.1,922.63a45.63,45.63,0,0,1-42.39-28.73L535.14,732a45.62,45.62,0,1,1,84.74-33.8l64.58,161.9a45.66,45.66,0,0,1-42.36,62.53Z" transform="translate(0)"/><path class="cls-3" d="M700.12,475.48a45.63,45.63,0,0,1-16.91-88l161.9-64.57a45.62,45.62,0,0,1,33.8,84.75L717,472.22A45.49,45.49,0,0,1,700.12,475.48Z" transform="translate(0)"/><path class="cls-2" d="M814.16,695.18a45.41,45.41,0,0,1-18.5-3.94l-116.3-51.69a45.62,45.62,0,0,1,37.06-83.38l116.3,51.69a45.63,45.63,0,0,1-18.56,87.32Z" transform="translate(0)"/><path class="cls-2" d="M340.65,918.65A45.65,45.65,0,0,1,298.76,855l68.82-160.15a45.62,45.62,0,0,1,83.83,36L382.58,891A45.62,45.62,0,0,1,340.65,918.65Z" transform="translate(0)"/><path class="cls-2" d="M582.85,355.1a45.64,45.64,0,0,1-42.28-62.71l29.07-72a45.62,45.62,0,1,1,84.6,34.16l-29.07,72A45.63,45.63,0,0,1,582.85,355.1Z" transform="translate(0)"/><path class="cls-3" d="M414.86,352.88A45.61,45.61,0,0,1,372.5,324.2L307.93,162.86a45.62,45.62,0,1,1,84.7-33.9L457.21,290.3a45.64,45.64,0,0,1-42.35,62.58Z" transform="translate(0)"/><path class="cls-3" d="M184.66,681.5a45.63,45.63,0,0,1-17.07-88l107.62-43.36a45.62,45.62,0,0,1,34.1,84.63L201.69,678.18A45.49,45.49,0,0,1,184.66,681.5Z" transform="translate(0)"/></g></svg>