<?xml version="1.0"?>
<svg width="300" height="300" xmlns="http://www.w3.org/2000/svg" xmlns:svg="http://www.w3.org/2000/svg">
    <metadata id="metadata17">image/svg+xml</metadata>
    <defs>
        <pattern height="6" id="EMFhbasepattern" patternUnits="userSpaceOnUse" width="6" x="0" y="0"/>
    </defs>
    <g class="layer">
        <title>Layer 1</title>
        <g id="g4189" transform="translate(21, 25) scale(0.75)">
            <rect fill="#ffffff" height="200" id="rect4" width="200" x="50" y="60"/>
            <g id="g4167" transform="matrix(11.3527, 0, 0, 11.3527, 1042.24, -1573.26)">
                <path d="m68.436858,124.367578c0,0 -63.21885,0.00005 -79.08594,4.12304c-8.49578,2.3738 -15.49141,9.3695 -17.86523,17.99024c-4.12296,15.8671 -4.12305,48.72656 -4.12305,48.72656c0,0 0.00009,32.9842 4.12305,48.60156c2.37382,8.62062 9.2445,15.49138 17.86523,17.86524c15.99203,4.24788 79.08594,4.24804 79.08594,4.24804c0,0 63.34418,-0.00005 79.21094,-4.12304c8.62079,-2.37381 15.49133,-9.11966 17.74023,-17.86524c4.24793,-15.74232 4.24805,-48.60156 4.24805,-48.60156c0,0 0.12484,-32.98446 -4.24805,-48.85156c-2.2489,-8.62074 -9.11944,-15.49133 -17.74023,-17.74024c-15.86676,-4.37284 -79.21094,-4.37304 -79.21094,-4.37304zm-20.11523,40.48046l52.59961,30.35938l-52.59961,30.23438l0,-60.59376z" fill="#ff0000" fill-rule="nonzero" id="path4156" transform="matrix(0.169416, 0, 0, 0.169416, -88.3329, 120.509)"/>
            </g>
        </g>
    </g>
</svg>
